<svg width="151" height="153" viewBox="0 0 151 153" fill="none" xmlns="http://www.w3.org/2000/svg">
<path d="M117.908 107.072C116.501 106.955 115.212 106.837 113.806 106.72C112.985 106.603 112.282 106.955 111.579 107.775C110.876 108.478 110.524 109.299 110.524 110.236C110.524 111.642 111.227 112.932 112.517 114.104C113.806 115.276 115.212 115.979 116.618 116.096C118.376 116.213 119.665 115.861 120.603 114.924C121.541 113.986 121.658 112.228 120.955 109.65C120.486 108.244 119.431 107.423 117.908 107.072Z" fill="white"/>
<path d="M124.588 85.7423C125.76 83.9843 125.057 81.7576 122.596 81.5232C121.189 81.406 120.369 80.9372 120.486 79.0621C120.603 74.0227 118.377 70.2724 114.509 67.3425C110.29 64.1782 105.368 63.3579 100.446 62.8891C96.8125 62.5375 93.1794 62.1859 89.1948 61.3655C91.0699 60.3108 92.7107 59.4904 94.117 58.5529C98.8048 55.7402 103.141 52.4587 106.774 48.1224C110.173 44.0206 111.11 37.4576 108.649 32.7698C105.954 27.496 101.149 26.324 95.9921 26.4412C92.0075 26.5584 88.0228 27.496 84.3898 29.2539C75.8345 33.3558 67.9824 38.5124 60.599 44.6066C57.6691 47.0677 54.7392 49.4116 51.6921 51.9899C52.0437 49.8804 52.5125 48.1224 52.7469 46.2473C53.6845 40.6219 53.2157 35.1137 50.5202 30.0743C49.231 27.8476 47.4731 26.324 45.012 25.8552C43.9572 25.6208 43.254 25.9724 42.6681 26.91C42.1993 27.8476 41.8477 28.7851 42.5509 29.7227C43.0197 30.4259 43.4884 31.129 44.1916 31.5978C46.5355 33.473 47.3559 36.0513 47.4731 38.9812C47.9419 46.4817 45.012 53.0447 42.1993 59.7248C41.9649 60.1936 41.4961 60.5452 41.0273 61.014C38.449 63.5923 35.7535 65.9362 33.4096 68.6317C29.0734 73.5539 24.7371 78.5933 22.276 84.9219C20.0493 90.7817 21.9244 98.8682 26.6122 102.618C28.4874 104.142 30.7141 104.025 32.472 102.384C33.9956 100.978 34.9331 99.1026 35.8707 97.2275C46.0667 76.601 58.8411 58.0841 75.2485 42.2626C80.1707 37.5748 85.7961 34.1761 92.4763 33.0042C96.2265 32.301 100.563 36.52 100.797 39.9187C101.032 44.7237 98.4532 47.7708 95.4062 50.5835C90.7183 54.8026 85.3273 57.6153 79.7019 60.1936C76.772 61.4827 74.0765 62.8891 71.6154 64.9986C69.0371 67.2253 67.8652 70.1552 68.8027 73.6711C69.6231 76.9526 72.0842 78.0074 74.8969 78.2417C82.2802 78.7105 89.6636 78.9449 97.0469 79.4137C100.094 79.6481 103.258 79.6481 105.719 82.2264C105.485 82.6952 105.133 82.6952 104.782 82.8124C89.4292 85.8595 74.3109 89.9613 59.8958 96.5243C56.966 97.8134 54.3876 99.5714 52.1609 101.915C48.4107 105.783 48.1763 111.877 53.6845 115.158C60.013 118.791 66.576 118.088 73.139 117.034C84.9757 115.158 95.6405 109.65 105.602 102.853C110.876 99.2198 115.095 94.6491 118.142 89.0238C118.963 87.5002 119.783 86.5626 121.658 86.9142C122.596 86.9142 123.885 86.9142 124.588 85.7423ZM106.891 89.4925C106.188 92.4224 104.196 94.6492 102.086 96.4071C92.945 103.673 83.1006 109.299 71.6154 111.291C70.2091 111.525 68.9199 111.525 67.5136 111.643C65.99 111.643 64.4665 111.643 63.0601 111.057C60.4818 110.002 59.6615 107.775 60.7162 105.197C61.4194 103.673 62.4742 102.501 63.8805 101.564C70.3263 97.3447 77.5924 95.4695 84.6242 93.1256C91.4215 90.8989 98.3361 89.3753 105.368 87.7346C106.891 87.5002 107.126 88.0862 106.891 89.4925Z" fill="white"/>
<path d="M45.5979 134.143C46.887 131.916 45.7151 130.041 43.1368 128.518L39.8553 126.525L32.7063 138.714L35.9878 140.589C38.4489 142.112 41.0272 142.698 42.5508 140.12C43.6055 138.362 43.0196 136.604 41.496 135.549C43.1368 136.135 44.5431 135.784 45.5979 134.143ZM40.6756 138.948C39.7381 140.589 38.0973 140.12 36.5738 139.183L35.2846 138.362L37.7457 134.26L38.9177 134.963C40.2069 135.784 41.7304 137.073 40.6756 138.948ZM39.3865 133.44L38.4489 132.854L40.6756 129.104L42.5508 130.158C43.6055 130.744 44.5431 131.916 43.7227 133.323C42.668 135.081 41.1444 134.378 39.3865 133.44Z" fill="white"/>
<path d="M53.5672 133.676L50.2857 132.504L45.3635 145.747L47.2387 146.45L49.4654 140.591L50.6373 141.059C51.6921 141.411 52.2781 141.645 52.3953 143.169L52.7469 148.56L54.8564 149.38L54.2704 143.169C54.1532 142.231 54.036 141.763 53.45 141.411C55.0908 141.763 56.7315 141.059 57.3175 139.419C58.4895 136.02 56.1455 134.614 53.5672 133.676ZM55.3252 138.481C54.8564 139.77 53.45 140.122 51.6921 139.536L50.0514 138.95L51.5749 134.965L53.45 135.668C55.0908 136.137 55.7939 137.309 55.3252 138.481Z" fill="white"/>
<path d="M83.3349 137.542L72.5529 137.894V139.652L77.0063 139.535L77.4751 151.957L79.4674 151.84L78.9987 139.417L83.4521 139.3L83.3349 137.542Z" fill="white"/>
<path d="M93.531 135.198L94.9374 140.94L88.2572 142.581L86.9681 136.721L84.9758 137.19L88.2572 151.019L90.2496 150.55L88.726 144.222L95.289 142.698L96.8125 149.027L98.8049 148.558L95.5234 134.729L93.531 135.198Z" fill="white"/>
<path d="M65.9898 137.073L57.7861 150.082L59.8956 150.433L61.888 147.152L68.8025 148.207L69.6229 151.957L71.8496 152.308L68.0993 137.425L65.9898 137.073ZM62.8255 145.511L66.693 139.065L68.3337 146.449L62.8255 145.511Z" fill="white"/>
<path d="M114.392 137.777C113.923 138.011 113.806 138.714 114.04 139.183C114.275 139.535 114.626 139.652 114.861 139.652C115.095 139.652 115.212 139.652 115.447 139.535C115.915 139.183 116.033 138.597 115.798 138.128C115.564 137.542 114.861 137.425 114.392 137.777Z" fill="white"/>
<path d="M119.431 134.261C118.962 134.613 118.845 135.199 119.197 135.668C119.431 135.902 119.665 136.019 120.017 136.019C120.251 136.019 120.486 135.902 120.603 135.785C121.072 135.433 121.189 134.847 120.837 134.379C120.603 134.027 119.9 133.91 119.431 134.261Z" fill="white"/>
<path d="M124.236 130.395C123.767 130.746 123.767 131.449 124.119 131.801C124.353 132.035 124.588 132.153 124.939 132.153C125.174 132.153 125.408 132.035 125.643 131.918C126.111 131.567 126.111 130.863 125.76 130.512C125.291 130.043 124.588 129.926 124.236 130.395Z" fill="white"/>
<path d="M149.433 81.1714C148.847 81.1714 148.378 81.523 148.378 82.109C148.378 82.6949 148.73 83.1637 149.316 83.1637C149.316 83.1637 149.316 83.1637 149.433 83.1637C149.902 83.1637 150.371 82.8121 150.488 82.2262C150.371 81.6402 150.019 81.1714 149.433 81.1714Z" fill="white"/>
<path d="M140.878 110.821C140.409 110.587 139.706 110.704 139.472 111.173C139.237 111.641 139.354 112.227 139.823 112.579C139.94 112.696 140.175 112.696 140.292 112.696C140.644 112.696 140.995 112.462 141.23 112.11C141.581 111.759 141.347 111.173 140.878 110.821Z" fill="white"/>
<path d="M143.573 105.197C143.105 104.963 142.401 105.197 142.167 105.666C141.933 106.135 142.167 106.72 142.753 107.072C142.87 107.072 142.987 107.189 143.105 107.189C143.456 107.189 143.925 106.955 144.042 106.603C144.277 106.134 144.042 105.431 143.573 105.197Z" fill="white"/>
<path d="M147.441 93.4768C146.855 93.3596 146.386 93.7112 146.152 94.18C146.035 94.766 146.386 95.2347 146.855 95.4691C146.972 95.4691 146.972 95.4691 147.089 95.4691C147.558 95.4691 147.91 95.1176 148.027 94.6488C148.378 94.18 148.027 93.594 147.441 93.4768Z" fill="white"/>
<path d="M137.714 116.212C137.245 115.86 136.542 115.977 136.307 116.446C135.956 116.915 136.073 117.501 136.542 117.852C136.659 117.97 136.893 117.97 137.128 117.97C137.479 117.97 137.831 117.852 137.948 117.501C138.3 117.149 138.183 116.563 137.714 116.212Z" fill="white"/>
<path d="M145.8 99.455C145.214 99.2206 144.628 99.5722 144.511 100.041C144.277 100.627 144.628 101.096 145.097 101.33C145.214 101.33 145.332 101.33 145.449 101.33C145.918 101.33 146.269 101.096 146.386 100.627C146.621 100.158 146.269 99.5722 145.8 99.455Z" fill="white"/>
<path d="M148.73 87.3833C148.144 87.2661 147.676 87.6177 147.558 88.2037C147.441 88.7896 147.793 89.2584 148.379 89.3756H148.496C148.965 89.3756 149.433 89.024 149.551 88.5553C149.668 87.9693 149.199 87.5005 148.73 87.3833Z" fill="white"/>
<path d="M134.081 121.253C133.612 120.901 133.026 121.019 132.674 121.37C132.323 121.839 132.44 122.425 132.792 122.777C133.026 122.894 133.143 123.011 133.378 123.011C133.612 123.011 133.964 122.894 134.198 122.659C134.549 122.308 134.549 121.605 134.081 121.253Z" fill="white"/>
<path d="M128.572 126.058C128.221 126.409 128.221 127.112 128.572 127.464C128.807 127.698 129.041 127.698 129.276 127.698C129.51 127.698 129.862 127.581 129.979 127.347C130.33 126.878 130.33 126.292 129.979 125.94C129.627 125.589 129.041 125.589 128.572 126.058Z" fill="white"/>
<path d="M81.5768 3.2372C81.694 3.2372 81.694 3.2372 81.5768 3.2372C82.1628 3.2372 82.6316 2.88561 82.6316 2.29963C82.6316 1.71366 82.28 1.24487 81.694 1.24487C81.1081 1.24487 80.6393 1.59646 80.6393 2.18244C80.6393 2.65122 80.9909 3.12001 81.5768 3.2372Z" fill="white"/>
<path d="M25.4401 22.4565C25.6745 22.4565 25.9089 22.3393 26.1433 22.2221C26.4948 21.8705 26.612 21.1674 26.1433 20.8158C25.7917 20.4642 25.0885 20.347 24.7369 20.8158C24.2681 21.1674 24.2681 21.8705 24.7369 22.2221C24.8541 22.3393 25.2057 22.4565 25.4401 22.4565Z" fill="white"/>
<path d="M51.4576 6.98668C51.5748 6.98668 51.692 6.98668 51.8092 6.98668C52.3951 6.75229 52.6295 6.16631 52.3951 5.69753C52.1607 5.11155 51.5748 4.87716 51.106 5.11155C50.52 5.34594 50.2856 5.93192 50.52 6.4007C50.6372 6.63509 51.106 6.98668 51.4576 6.98668Z" fill="white"/>
<path d="M69.3886 3.2372C69.5058 3.2372 69.5058 3.2372 69.3886 3.2372C70.0918 3.2372 70.4434 2.65122 70.4434 2.18244C70.4434 1.59646 69.8574 1.24487 69.3886 1.24487C68.8026 1.24487 68.451 1.83085 68.451 2.29963C68.451 2.76842 68.9198 3.2372 69.3886 3.2372Z" fill="white"/>
<path d="M63.4115 3.93934H63.5287C64.1147 3.82215 64.4663 3.35337 64.3491 2.76739C64.2319 2.18141 63.7631 1.82982 63.1771 1.94702C62.5912 2.06421 62.2396 2.53299 62.3568 3.11897C62.474 3.58776 62.8255 3.93934 63.4115 3.93934Z" fill="white"/>
<path d="M57.4347 5.22817C57.5519 5.22817 57.5519 5.22817 57.6691 5.22817C58.2551 5.11097 58.4895 4.525 58.3723 3.93902C58.2551 3.35304 57.6691 3.11865 57.0831 3.23584C56.4971 3.35304 56.2627 3.93902 56.3799 4.525C56.4971 4.87658 56.9659 5.22817 57.4347 5.22817Z" fill="white"/>
<path d="M45.8323 9.21334C45.9494 9.21334 46.0666 9.21334 46.301 9.09615C46.7698 8.86176 47.0042 8.27578 46.887 7.80699C46.6526 7.22101 46.0666 7.10382 45.4807 7.22101C45.0119 7.45541 44.7775 8.04139 44.8947 8.62736C45.0119 8.97895 45.4807 9.21334 45.8323 9.21334Z" fill="white"/>
<path d="M30.128 18.5896C30.3624 18.5896 30.5967 18.4724 30.7139 18.3552C31.1827 18.0036 31.2999 17.4176 30.9483 16.9489C30.5967 16.4801 29.8936 16.4801 29.542 16.8317C29.0732 17.1833 28.956 17.7692 29.4248 18.238C29.542 18.3552 29.7764 18.5896 30.128 18.5896Z" fill="white"/>
<path d="M2.35265 64.7645H2.46985C2.93863 64.7645 3.40741 64.413 3.52461 63.9442C3.64181 63.3582 3.29022 62.8894 2.70424 62.7722C2.11826 62.655 1.64948 63.0066 1.53228 63.5926C1.41509 64.0614 1.76667 64.6473 2.35265 64.7645Z" fill="white"/>
<path d="M3.5247 58.6696C3.64189 58.6696 3.64189 58.6696 3.75909 58.6696C4.22787 58.6696 4.57946 58.318 4.81385 57.8492C4.93104 57.2632 4.57946 56.7945 4.11067 56.5601C3.5247 56.4429 3.05591 56.7945 2.82152 57.2632C2.70432 58.0836 2.93872 58.5524 3.5247 58.6696Z" fill="white"/>
<path d="M40.3241 11.7916C40.4413 11.7916 40.6757 11.7916 40.7929 11.6744C41.2617 11.44 41.4961 10.854 41.2617 10.268C41.0273 9.79923 40.3241 9.56484 39.8553 9.79923C39.3865 10.0336 39.1521 10.7368 39.3865 11.2056C39.6209 11.6744 39.9725 11.7916 40.3241 11.7916Z" fill="white"/>
<path d="M35.0503 14.9565C35.2847 14.9565 35.4019 14.9565 35.6363 14.8393C36.105 14.4877 36.2222 13.9017 35.9878 13.433C35.6363 12.9642 35.0503 12.847 34.5815 13.1986C34.1127 13.5502 33.9955 14.1361 34.3471 14.6049C34.4643 14.8393 34.6987 14.9565 35.0503 14.9565Z" fill="white"/>
<path d="M21.1038 26.7926C21.3382 26.7926 21.6898 26.6754 21.807 26.441C22.1586 25.9723 22.1586 25.3863 21.807 25.0347C21.3382 24.6831 20.7522 24.6831 20.4007 25.0347C20.0491 25.5035 20.0491 26.0894 20.4007 26.441C20.635 26.7926 20.8694 26.7926 21.1038 26.7926Z" fill="white"/>
<path d="M145.566 52.9264C145.683 52.9264 145.8 52.9264 145.917 52.9264C146.503 52.692 146.738 52.106 146.503 51.6372C146.269 51.0512 145.683 50.8169 145.214 51.0512C144.628 51.2856 144.394 51.7544 144.628 52.3404C144.745 52.692 145.214 52.9264 145.566 52.9264Z" fill="white"/>
<path d="M120.369 18.3547C120.603 18.4719 120.838 18.5891 120.955 18.5891C121.189 18.5891 121.541 18.4719 121.775 18.2375C122.127 17.7687 122.01 17.1827 121.541 16.8311C121.072 16.4796 120.486 16.5967 120.135 17.0655C119.9 17.2999 119.9 18.0031 120.369 18.3547Z" fill="white"/>
<path d="M146.386 57.9676C146.503 58.4364 146.972 58.788 147.324 58.788C147.441 58.788 147.558 58.788 147.558 58.788C148.144 58.6708 148.378 58.0848 148.261 57.4988C148.144 56.9129 147.558 56.6785 146.972 56.7957C146.503 56.9129 146.152 57.4988 146.386 57.9676Z" fill="white"/>
<path d="M147.558 63.9442C147.676 64.413 148.027 64.7645 148.613 64.7645H148.73C149.316 64.6473 149.668 64.1786 149.551 63.5926C149.433 63.0066 148.965 62.655 148.379 62.7722C147.793 62.8894 147.441 63.3582 147.558 63.9442Z" fill="white"/>
<path d="M148.261 69.9207C148.261 70.5067 148.73 70.8583 149.316 70.8583C149.316 70.8583 149.316 70.8583 149.433 70.8583C150.019 70.8583 150.371 70.2723 150.371 69.8035C150.371 69.2176 149.785 68.866 149.199 68.866C148.73 68.866 148.261 69.3348 148.261 69.9207Z" fill="white"/>
<path d="M93.5309 5.11222C93.6481 5.11222 93.6481 5.11222 93.7653 5.11222C94.234 5.11222 94.5856 4.76063 94.7028 4.29185C94.82 3.70587 94.4684 3.23709 93.9997 3.00269C93.4137 2.8855 92.9449 3.23709 92.8277 3.70587C92.5933 4.52624 92.9449 4.99502 93.5309 5.11222Z" fill="white"/>
<path d="M87.554 3.93934H87.6712C88.1399 3.93934 88.6087 3.58776 88.7259 3.11897C88.8431 2.53299 88.4915 2.06421 87.9055 1.94702C87.3196 1.82982 86.8508 2.18141 86.7336 2.76739C86.6164 3.35337 87.0852 3.82215 87.554 3.93934Z" fill="white"/>
<path d="M99.2736 6.86844C99.3907 6.86844 99.5079 6.98564 99.6251 6.98564C100.094 6.98564 100.446 6.75124 100.563 6.28246C100.797 5.69648 100.446 5.1105 99.9767 4.99331C99.3907 4.75892 98.8048 5.1105 98.6876 5.57929C98.4532 6.16527 98.6876 6.75124 99.2736 6.86844Z" fill="white"/>
<path d="M110.29 11.7912C110.407 11.9084 110.641 11.9084 110.759 11.9084C111.11 11.9084 111.462 11.674 111.696 11.3224C111.931 10.8536 111.813 10.1504 111.227 9.91602C110.759 9.68163 110.055 9.79883 109.821 10.2676C109.587 10.8536 109.821 11.4396 110.29 11.7912Z" fill="white"/>
<path d="M115.447 14.8376C115.564 14.9548 115.798 14.9548 116.033 14.9548C116.384 14.9548 116.736 14.8376 116.853 14.486C117.205 14.0172 117.087 13.3141 116.619 13.0797C116.15 12.7281 115.564 12.8453 115.212 13.3141C114.861 13.9 114.978 14.486 115.447 14.8376Z" fill="white"/>
<path d="M104.899 9.09703C105.016 9.09703 105.133 9.21423 105.25 9.21423C105.602 9.21423 106.071 8.97984 106.188 8.62825C106.422 8.15947 106.188 7.45629 105.719 7.2219C105.25 6.98751 104.547 7.2219 104.313 7.80788C104.196 8.27666 104.43 8.86264 104.899 9.09703Z" fill="white"/>
<path d="M5.86843 50.9354C5.28245 50.7011 4.69647 51.0526 4.57928 51.5214C4.34488 52.1074 4.69647 52.6934 5.16525 52.8106C5.28245 52.8106 5.39965 52.8106 5.51684 52.8106C5.98563 52.8106 6.33721 52.5762 6.45441 52.1074C6.6888 51.6386 6.33721 51.0526 5.86843 50.9354Z" fill="white"/>
<path d="M17.8226 29.606C17.3538 29.2545 16.7678 29.3716 16.4162 29.8404C16.0646 30.3092 16.1818 30.8952 16.5334 31.2468C16.7678 31.364 17.0022 31.4812 17.1194 31.4812C17.3538 31.4812 17.7054 31.364 17.9398 31.1296C18.2914 30.6608 18.1742 29.9576 17.8226 29.606Z" fill="white"/>
<path d="M142.987 45.3104C142.519 45.5448 142.284 46.1308 142.402 46.5996C142.519 46.9512 142.987 47.1855 143.339 47.1855C143.456 47.1855 143.573 47.1855 143.691 47.0684C144.159 46.834 144.394 46.248 144.159 45.662C144.042 45.3104 143.456 45.076 142.987 45.3104Z" fill="white"/>
<path d="M140.175 39.8014C139.706 40.0358 139.472 40.6218 139.823 41.2078C140.058 41.5594 140.409 41.7937 140.761 41.7937C140.878 41.7937 141.113 41.7937 141.23 41.6765C141.698 41.4422 141.933 40.739 141.581 40.2702C141.347 39.6842 140.644 39.567 140.175 39.8014Z" fill="white"/>
<path d="M1.64939 70.8583C1.76658 70.8583 1.76658 70.8583 1.64939 70.8583C2.23537 70.8583 2.70415 70.5067 2.70415 69.9207C2.70415 69.3348 2.35256 68.866 1.76658 68.866C1.18061 68.866 0.711823 69.2176 0.711823 69.8035C0.711823 70.2723 1.18061 70.7411 1.64939 70.8583Z" fill="white"/>
<path d="M133.378 29.7233C132.909 30.0749 132.792 30.6608 133.143 31.1296C133.378 31.364 133.612 31.4812 133.964 31.4812C134.198 31.4812 134.432 31.364 134.55 31.2468C135.018 30.8952 135.018 30.3093 134.784 29.8405C134.432 29.3717 133.729 29.3717 133.378 29.7233Z" fill="white"/>
<path d="M129.276 25.0353C128.807 25.3869 128.807 26.09 129.276 26.4416C129.51 26.676 129.745 26.7932 129.979 26.7932C130.213 26.7932 130.448 26.676 130.682 26.5588C131.034 26.2072 131.151 25.5041 130.682 25.1525C130.331 24.6837 129.745 24.6837 129.276 25.0353Z" fill="white"/>
<path d="M10.908 39.8008C10.4393 39.5664 9.73608 39.6836 9.50169 40.1524C9.2673 40.6212 9.38449 41.3243 9.85327 41.5587C9.97047 41.6759 10.2049 41.6759 10.3221 41.6759C10.6736 41.6759 11.0252 41.4415 11.2596 41.0899C11.6112 40.6212 11.3768 40.0352 10.908 39.8008Z" fill="white"/>
<path d="M137.01 34.6443C136.542 34.9959 136.424 35.5819 136.776 36.0507C137.01 36.285 137.245 36.5194 137.596 36.5194C137.831 36.5194 137.948 36.5194 138.182 36.4022C138.651 36.0507 138.768 35.4647 138.417 34.9959C138.065 34.4099 137.479 34.2927 137.01 34.6443Z" fill="white"/>
<path d="M14.1895 34.6441C13.7207 34.2925 13.1348 34.4097 12.7832 34.8785C12.4316 35.3473 12.5488 35.9333 13.0176 36.2849C13.252 36.4021 13.3692 36.4021 13.6036 36.4021C13.9551 36.4021 14.3067 36.2849 14.4239 35.9333C14.7755 35.5817 14.6583 34.8785 14.1895 34.6441Z" fill="white"/>
<path d="M8.21253 45.1916C7.74374 44.9572 7.04057 45.1916 6.92337 45.7776C6.68898 46.2464 6.92337 46.9496 7.39216 47.184C7.50935 47.184 7.62655 47.3011 7.86094 47.3011C8.21253 47.3011 8.68131 47.0668 8.79851 46.7152C8.9157 46.1292 8.68131 45.426 8.21253 45.1916Z" fill="white"/>
<path d="M126.346 20.6976C125.877 20.346 125.291 20.3461 124.94 20.8148C124.588 21.2836 124.588 21.8696 124.94 22.2212C125.174 22.4556 125.408 22.4556 125.643 22.4556C125.877 22.4556 126.229 22.3384 126.346 22.104C126.815 21.7524 126.815 21.1664 126.346 20.6976Z" fill="white"/>
<path d="M5.04799 98.7517C4.46201 98.9861 4.22762 99.4549 4.46201 100.041C4.57921 100.51 5.04799 100.744 5.39958 100.744C5.51677 100.744 5.63397 100.744 5.75117 100.744C6.33714 100.627 6.57154 100.041 6.33714 99.4549C6.21995 98.7517 5.63397 98.5173 5.04799 98.7517Z" fill="white"/>
<path d="M4.69643 93.5938C4.57923 93.0078 3.99326 92.7734 3.52447 92.8906C2.93849 93.0078 2.58691 93.5938 2.8213 94.1798C2.93849 94.6486 3.40728 95.0002 3.75886 95.0002C3.87606 95.0002 3.87606 95.0002 3.99326 95.0002C4.57923 94.7658 4.81363 94.1798 4.69643 93.5938Z" fill="white"/>
<path d="M19.932 124.768C19.5804 125.12 19.4632 125.823 19.8148 126.175C20.0492 126.409 20.2836 126.526 20.6352 126.526C20.8695 126.526 21.1039 126.409 21.3383 126.292C21.8071 125.94 21.8071 125.237 21.4555 124.886C20.9867 124.417 20.4008 124.417 19.932 124.768Z" fill="white"/>
<path d="M1.88389 82.9303C2.46987 82.9303 2.82146 82.3443 2.82146 81.8755C2.82146 81.2896 2.23548 80.938 1.7667 80.938C1.18072 80.938 0.829132 81.524 0.829132 81.9927C0.829132 82.5787 1.29791 82.9303 1.88389 82.9303C1.7667 82.9303 1.7667 82.9303 1.88389 82.9303Z" fill="white"/>
<path d="M3.52461 87.7344C3.52461 87.8516 3.52461 87.8516 3.52461 87.7344C3.40741 87.1484 2.93863 86.7969 2.35265 86.9141C1.76667 87.0313 1.41509 87.5 1.53228 88.086C1.64948 88.5548 2.11826 88.9064 2.58704 88.9064H2.70424C3.17302 88.9064 3.64181 88.3204 3.52461 87.7344Z" fill="white"/>
<path d="M16.1818 120.081C15.713 120.433 15.5958 121.019 15.9474 121.488C16.1818 121.722 16.4162 121.839 16.7678 121.839C17.0022 121.839 17.2366 121.722 17.3538 121.605C17.8225 121.253 17.9397 120.667 17.5882 120.198C17.2366 119.847 16.5334 119.73 16.1818 120.081Z" fill="white"/>
<path d="M7.15758 104.375C6.5716 104.61 6.33721 105.196 6.5716 105.664C6.6888 106.016 7.15758 106.25 7.50917 106.25C7.62636 106.25 7.74356 106.25 7.86075 106.133C8.32954 105.899 8.56393 105.313 8.44673 104.844C8.32954 104.375 7.74356 104.141 7.15758 104.375Z" fill="white"/>
<path d="M12.7832 115.159C12.3144 115.511 12.1972 116.097 12.4316 116.566C12.666 116.917 13.0176 117.034 13.2519 117.034C13.4863 117.034 13.6035 117.034 13.8379 116.917C14.3067 116.566 14.4239 115.98 14.1895 115.511C13.8379 114.925 13.2519 114.808 12.7832 115.159Z" fill="white"/>
<path d="M9.73606 109.885C9.26728 110.119 9.03288 110.705 9.26728 111.291C9.50167 111.643 9.85325 111.877 10.2048 111.877C10.322 111.877 10.5564 111.877 10.6736 111.76C11.1424 111.525 11.3768 110.939 11.1424 110.353C10.908 109.767 10.2048 109.533 9.73606 109.885Z" fill="white"/>
<path d="M149.668 74.9592C149.082 74.9592 148.613 75.428 148.613 76.014C148.613 76.6 149.082 77.0688 149.668 77.0688C150.254 77.0688 150.722 76.6 150.722 76.014C150.605 75.3108 150.254 74.9592 149.668 74.9592Z" fill="white"/>
<path d="M109.587 142.817C110.169 142.817 110.641 142.345 110.641 141.763C110.641 141.18 110.169 140.708 109.587 140.708C109.004 140.708 108.532 141.18 108.532 141.763C108.532 142.345 109.004 142.817 109.587 142.817Z" fill="white"/>
<path d="M1.53236 76.9518C2.11834 76.9518 2.58712 76.483 2.58712 75.897C2.58712 75.3111 2.11834 74.8423 1.53236 74.8423C0.946383 74.8423 0.4776 75.3111 0.4776 75.897C0.4776 76.483 0.946383 76.9518 1.53236 76.9518Z" fill="white"/>
<path d="M75.5999 3.00186C76.1859 3.00186 76.6547 2.53307 76.6547 1.9471C76.6547 1.36112 76.1859 0.892334 75.5999 0.892334C75.0139 0.892334 74.5452 1.36112 74.5452 1.9471C74.5452 2.53307 75.0139 3.00186 75.5999 3.00186Z" fill="white"/>
<path d="M24.2682 129.104C23.9166 129.455 23.7994 130.159 24.151 130.51C24.3854 130.745 24.6197 130.862 24.9713 130.862C25.2057 130.862 25.4401 130.745 25.6745 130.627C26.1433 130.276 26.1433 129.573 25.7917 129.221C25.3229 128.752 24.6197 128.752 24.2682 129.104Z" fill="white"/>
</svg>
